<svg width="36" height="36" viewBox="0 0 36 36" fill="none" xmlns="http://www.w3.org/2000/svg">
<circle cx="18" cy="18" r="18" fill="#FF222C"/>
<path fill-rule="evenodd" clip-rule="evenodd" d="M14.5 25C15.3284 25 16 25.6716 16 26.5C16 27.3284 15.3284 28 14.5 28C13.6716 28 13 27.3284 13 26.5C13 25.6716 13.6716 25 14.5 25ZM23.5 25C24.3284 25 25 25.6716 25 26.5C25 27.3284 24.3284 28 23.5 28C22.6716 28 22 27.3284 22 26.5C22 25.6716 22.6716 25 23.5 25ZM9 8H11C11.4556 8 11.8483 8.30684 11.9651 8.73774L11.9884 8.84794L12.4733 12H27C27.5998 12 28.0549 12.5207 27.9951 13.1003L27.9762 13.2169L26.3242 20.6508C26.0325 21.9637 24.9059 22.9143 23.5779 22.9945L23.3957 23H14.7158C13.2944 23 12.077 22.0044 11.7827 20.6299L11.7507 20.4562L10.1421 10H9C8.44772 10 8 9.55228 8 9C8 8.48716 8.38604 8.06449 8.88338 8.00673L9 8H11H9ZM25.7534 14H12.781L13.7275 20.1521C13.7967 20.6024 14.1597 20.9438 14.6034 20.9937L14.7158 21H23.3957C23.8253 21 24.2021 20.7265 24.3402 20.3285L24.3718 20.2169L25.7534 14Z" fill="white"/>
</svg>
