<svg width="18" height="18" viewBox="0 0 18 18" fill="none" xmlns="http://www.w3.org/2000/svg">
<path fill-rule="evenodd" clip-rule="evenodd" d="M13.5721 0C12.3977 0 11.2715 0.466511 10.4411 1.2969L5.21892 6.51907C2.82048 8.91751 1.11897 11.9227 0.296311 15.2133L0.0439783 16.2227C-0.217732 17.2695 0.730496 18.2177 1.77734 17.956L2.78667 17.7037C6.0773 16.881 9.08249 15.1795 11.4809 12.7811L16.7031 7.55892C17.5335 6.72852 18 5.60226 18 4.42791C18 1.98244 16.0176 0 13.5721 0ZM12.0713 5.92868C12.8707 6.72805 13.7974 7.06857 14.4848 6.94894L15.289 6.14477C15.7443 5.68943 16.0001 5.07186 16.0001 4.42791C16.0001 3.08696 14.913 1.9999 13.5721 1.9999C12.9281 1.9999 12.3106 2.25571 11.8552 2.71105L11.0511 3.51521C10.9314 4.20259 11.2719 5.1293 12.0713 5.92868Z" fill="#170C10"/>
</svg>
