<svg width="29" height="29" viewBox="0 0 29 29" fill="none" xmlns="http://www.w3.org/2000/svg">
<path d="M15.7834 0.530682C15.443 0.190887 14.9813 0 14.5 0C14.0186 0 13.557 0.190887 13.2166 0.530682L0.509573 13.2184C0.178903 13.5602 -0.00406736 14.018 6.86227e-05 14.4933C0.00420461 14.9685 0.195117 15.4231 0.531686 15.7592C0.868255 16.0952 1.32355 16.2859 1.79951 16.29C2.27548 16.2941 2.73402 16.1114 3.07639 15.7813L3.60827 15.2502V27.1875C3.60827 27.6682 3.79952 28.1292 4.13996 28.4691C4.48039 28.809 4.94211 29 5.42356 29H9.05413C9.53558 29 9.9973 28.809 10.3377 28.4691C10.6782 28.1292 10.8694 27.6682 10.8694 27.1875V23.5624C10.8694 23.0817 11.0607 22.6207 11.4011 22.2808C11.7415 21.9409 12.2033 21.7499 12.6847 21.7499H16.3153C16.7967 21.7499 17.2585 21.9409 17.5989 22.2808C17.9393 22.6207 18.1306 23.0817 18.1306 23.5624V27.1875C18.1306 27.6682 18.3218 28.1292 18.6623 28.4691C19.0027 28.809 19.4644 29 19.9459 29H23.5764C24.0579 29 24.5196 28.809 24.86 28.4691C25.2005 28.1292 25.3917 27.6682 25.3917 27.1875V15.2502L25.9236 15.7813C26.266 16.1114 26.7245 16.2941 27.2005 16.29C27.6764 16.2859 28.1317 16.0952 28.4683 15.7592C28.8049 15.4231 28.9958 14.9685 28.9999 14.4933C29.0041 14.018 28.8211 13.5602 28.4904 13.2184L15.7834 0.530682Z" fill="#170C10"/>
</svg>
