<svg width="16" height="20" viewBox="0 0 16 20" fill="none" xmlns="http://www.w3.org/2000/svg">
<path d="M7.77618 20C6.37306 18.8032 5.0725 17.4911 3.88809 16.0775C2.11068 13.9546 9.81645e-07 10.793 9.81645e-07 7.7803C-0.00157443 4.63378 1.89322 1.79641 4.8002 0.592222C7.70718 -0.611966 11.0534 0.0543808 13.2773 2.28032C14.7397 3.73625 15.5589 5.71671 15.5524 7.7803C15.5524 10.793 13.4417 13.9546 11.6643 16.0775C10.4799 17.4911 9.17929 18.8032 7.77618 20ZM7.77618 4.44765C6.58554 4.44765 5.48534 5.08285 4.89002 6.11398C4.2947 7.1451 4.2947 8.4155 4.89002 9.44662C5.48534 10.4777 6.58554 11.1129 7.77618 11.1129C9.61675 11.1129 11.1088 9.62087 11.1088 7.7803C11.1088 5.93973 9.61675 4.44765 7.77618 4.44765Z" fill="#170C10"/>
</svg>
