<svg width="7" height="7" viewBox="0 0 7 7" fill="none" xmlns="http://www.w3.org/2000/svg">
<path d="M3.00234 6.604C2.86634 6.604 2.76234 6.568 2.69034 6.496C2.61834 6.416 2.58234 6.308 2.58234 6.172V3.964H0.410344C0.274344 3.964 0.170344 3.928 0.0983438 3.856C0.0263438 3.784 -0.00965622 3.684 -0.00965622 3.556C-0.00965622 3.428 0.0263438 3.328 0.0983438 3.256C0.170344 3.184 0.274344 3.148 0.410344 3.148H2.58234V1.012C2.58234 0.868 2.61834 0.76 2.69034 0.688C2.76234 0.616 2.87034 0.58 3.01434 0.58C3.15034 0.58 3.25034 0.616 3.31434 0.688C3.38634 0.76 3.42234 0.868 3.42234 1.012V3.148H5.59434C5.73034 3.148 5.83434 3.184 5.90634 3.256C5.97834 3.328 6.01434 3.428 6.01434 3.556C6.01434 3.684 5.97834 3.784 5.90634 3.856C5.83434 3.928 5.73034 3.964 5.59434 3.964H3.42234V6.172C3.42234 6.308 3.38634 6.416 3.31434 6.496C3.25034 6.568 3.14634 6.604 3.00234 6.604Z" fill="white"/>
</svg>
