<svg width="360" height="800" viewBox="0 0 360 800" fill="none" xmlns="http://www.w3.org/2000/svg">
<rect width="360" height="800" fill="url(#paint0_linear_374_19)"/>
<path d="M102.8 478V461.2H110.48C112.016 461.2 113.336 461.448 114.44 461.944C115.56 462.44 116.424 463.16 117.032 464.104C117.64 465.032 117.944 466.136 117.944 467.416C117.944 468.68 117.64 469.776 117.032 470.704C116.424 471.632 115.56 472.352 114.44 472.864C113.336 473.36 112.016 473.608 110.48 473.608H105.44L107.552 471.544V478H102.8ZM107.552 472.048L105.44 469.864H110.192C111.184 469.864 111.92 469.648 112.4 469.216C112.896 468.784 113.144 468.184 113.144 467.416C113.144 466.632 112.896 466.024 112.4 465.592C111.92 465.16 111.184 464.944 110.192 464.944H105.44L107.552 462.76V472.048ZM126.505 478.216C124.969 478.216 123.625 477.928 122.473 477.352C121.337 476.76 120.449 475.96 119.809 474.952C119.185 473.928 118.873 472.768 118.873 471.472C118.873 470.176 119.177 469.024 119.785 468.016C120.409 466.992 121.265 466.2 122.353 465.64C123.441 465.064 124.665 464.776 126.025 464.776C127.305 464.776 128.473 465.04 129.529 465.568C130.585 466.08 131.425 466.84 132.049 467.848C132.673 468.856 132.985 470.08 132.985 471.52C132.985 471.68 132.977 471.864 132.961 472.072C132.945 472.28 132.929 472.472 132.913 472.648H122.617V470.248H130.489L128.761 470.92C128.777 470.328 128.665 469.816 128.425 469.384C128.201 468.952 127.881 468.616 127.465 468.376C127.065 468.136 126.593 468.016 126.049 468.016C125.505 468.016 125.025 468.136 124.609 468.376C124.209 468.616 123.897 468.96 123.673 469.408C123.449 469.84 123.337 470.352 123.337 470.944V471.64C123.337 472.28 123.465 472.832 123.721 473.296C123.993 473.76 124.377 474.12 124.873 474.376C125.369 474.616 125.961 474.736 126.649 474.736C127.289 474.736 127.833 474.648 128.281 474.472C128.745 474.28 129.201 473.992 129.649 473.608L132.049 476.104C131.425 476.792 130.657 477.32 129.745 477.688C128.833 478.04 127.753 478.216 126.505 478.216ZM141.923 478.216C140.483 478.216 139.195 477.928 138.059 477.352C136.939 476.776 136.059 475.984 135.419 474.976C134.779 473.952 134.459 472.784 134.459 471.472C134.459 470.16 134.779 469 135.419 467.992C136.059 466.984 136.939 466.2 138.059 465.64C139.195 465.064 140.483 464.776 141.923 464.776C143.395 464.776 144.667 465.088 145.739 465.712C146.811 466.336 147.571 467.216 148.019 468.352L144.491 470.152C144.187 469.544 143.811 469.104 143.363 468.832C142.915 468.544 142.427 468.4 141.899 468.4C141.371 468.4 140.891 468.52 140.459 468.76C140.027 469 139.683 469.352 139.427 469.816C139.187 470.264 139.067 470.816 139.067 471.472C139.067 472.144 139.187 472.712 139.427 473.176C139.683 473.64 140.027 473.992 140.459 474.232C140.891 474.472 141.371 474.592 141.899 474.592C142.427 474.592 142.915 474.456 143.363 474.184C143.811 473.896 144.187 473.448 144.491 472.84L148.019 474.64C147.571 475.776 146.811 476.656 145.739 477.28C144.667 477.904 143.395 478.216 141.923 478.216ZM152.878 478V467.608L153.862 468.616H148.678V464.992H161.59V468.616H156.406L157.414 467.608V478H152.878ZM169.249 478.216C167.825 478.216 166.561 477.928 165.457 477.352C164.353 476.776 163.481 475.984 162.841 474.976C162.217 473.952 161.905 472.784 161.905 471.472C161.905 470.16 162.217 469 162.841 467.992C163.481 466.984 164.353 466.2 165.457 465.64C166.561 465.064 167.825 464.776 169.249 464.776C170.673 464.776 171.937 465.064 173.041 465.64C174.161 466.2 175.033 466.984 175.657 467.992C176.281 469 176.593 470.16 176.593 471.472C176.593 472.784 176.281 473.952 175.657 474.976C175.033 475.984 174.161 476.776 173.041 477.352C171.937 477.928 170.673 478.216 169.249 478.216ZM169.249 474.592C169.777 474.592 170.241 474.472 170.641 474.232C171.057 473.992 171.385 473.64 171.625 473.176C171.865 472.696 171.985 472.128 171.985 471.472C171.985 470.816 171.865 470.264 171.625 469.816C171.385 469.352 171.057 469 170.641 468.76C170.241 468.52 169.777 468.4 169.249 468.4C168.737 468.4 168.273 468.52 167.857 468.76C167.457 469 167.129 469.352 166.873 469.816C166.633 470.264 166.513 470.816 166.513 471.472C166.513 472.128 166.633 472.696 166.873 473.176C167.129 473.64 167.457 473.992 167.857 474.232C168.273 474.472 168.737 474.592 169.249 474.592ZM186.915 478.216C185.811 478.216 184.867 477.976 184.083 477.496C183.299 477 182.699 476.264 182.283 475.288C181.883 474.296 181.683 473.032 181.683 471.496C181.683 469.944 181.875 468.68 182.259 467.704C182.643 466.712 183.219 465.976 183.987 465.496C184.771 465.016 185.747 464.776 186.915 464.776C188.099 464.776 189.171 465.056 190.131 465.616C191.107 466.16 191.875 466.936 192.435 467.944C193.011 468.936 193.299 470.12 193.299 471.496C193.299 472.872 193.011 474.064 192.435 475.072C191.875 476.08 191.107 476.856 190.131 477.4C189.171 477.944 188.099 478.216 186.915 478.216ZM178.731 482.656V464.992H183.075V467.2L183.051 471.496L183.291 475.816V482.656H178.731ZM185.955 474.592C186.467 474.592 186.923 474.472 187.323 474.232C187.739 473.992 188.067 473.64 188.307 473.176C188.563 472.712 188.691 472.152 188.691 471.496C188.691 470.84 188.563 470.28 188.307 469.816C188.067 469.352 187.739 469 187.323 468.76C186.923 468.52 186.467 468.4 185.955 468.4C185.443 468.4 184.979 468.52 184.563 468.76C184.163 469 183.835 469.352 183.579 469.816C183.339 470.28 183.219 470.84 183.219 471.496C183.219 472.152 183.339 472.712 183.579 473.176C183.835 473.64 184.163 473.992 184.563 474.232C184.979 474.472 185.443 474.592 185.955 474.592ZM197.538 482.872C196.85 482.872 196.154 482.76 195.45 482.536C194.762 482.328 194.202 482.048 193.77 481.696L195.354 478.504C195.626 478.744 195.938 478.928 196.29 479.056C196.658 479.2 197.018 479.272 197.37 479.272C197.866 479.272 198.258 479.16 198.546 478.936C198.834 478.712 199.082 478.36 199.29 477.88L199.89 476.368L200.25 475.912L204.666 464.992H209.01L203.394 478.528C202.946 479.648 202.426 480.52 201.834 481.144C201.258 481.784 200.61 482.232 199.89 482.488C199.186 482.744 198.402 482.872 197.538 482.872ZM199.314 478.552L193.578 464.992H198.258L202.482 475.504L199.314 478.552ZM210.489 478V464.992H215.289L219.825 473.488H217.929L222.897 464.992H227.193L227.217 478H223.113V469.504L223.809 469.984L219.777 476.848H217.833L213.801 469.648L214.593 469.432V478H210.489ZM237.062 478.336C236.006 478.336 235.022 478.184 234.11 477.88C233.214 477.576 232.43 477.096 231.758 476.44C231.102 475.784 230.582 474.928 230.198 473.872C229.83 472.816 229.646 471.536 229.646 470.032C229.646 469.024 229.734 468.096 229.91 467.248C230.086 466.4 230.35 465.624 230.702 464.92C231.07 464.2 231.534 463.568 232.094 463.024C232.67 462.48 233.342 462.024 234.11 461.656C234.878 461.288 235.758 461.008 236.75 460.816L243.062 459.616L243.686 463.432L238.214 464.464C237.878 464.528 237.51 464.608 237.11 464.704C236.726 464.8 236.35 464.944 235.982 465.136C235.614 465.312 235.27 465.56 234.95 465.88C234.646 466.2 234.398 466.624 234.206 467.152C234.03 467.664 233.942 468.304 233.942 469.072C233.942 469.296 233.95 469.48 233.966 469.624C233.998 469.752 234.022 469.904 234.038 470.08C234.054 470.24 234.062 470.488 234.062 470.824L232.79 469.648C233.174 468.976 233.63 468.408 234.158 467.944C234.702 467.48 235.326 467.12 236.03 466.864C236.734 466.608 237.518 466.48 238.382 466.48C239.646 466.48 240.734 466.728 241.646 467.224C242.558 467.704 243.254 468.376 243.734 469.24C244.23 470.088 244.478 471.056 244.478 472.144C244.478 473.424 244.158 474.528 243.518 475.456C242.878 476.368 241.998 477.08 240.878 477.592C239.774 478.088 238.502 478.336 237.062 478.336ZM237.182 474.88C237.71 474.88 238.166 474.768 238.55 474.544C238.95 474.32 239.262 474.008 239.486 473.608C239.71 473.208 239.822 472.76 239.822 472.264C239.822 471.752 239.71 471.312 239.486 470.944C239.262 470.576 238.95 470.288 238.55 470.08C238.166 469.872 237.71 469.768 237.182 469.768C236.654 469.768 236.182 469.872 235.766 470.08C235.366 470.288 235.054 470.568 234.83 470.92C234.606 471.272 234.494 471.696 234.494 472.192C234.494 472.688 234.606 473.144 234.83 473.56C235.054 473.976 235.366 474.304 235.766 474.544C236.182 474.768 236.654 474.88 237.182 474.88ZM254.006 478V475.576L253.694 474.976V470.512C253.694 469.792 253.47 469.24 253.022 468.856C252.59 468.456 251.894 468.256 250.934 468.256C250.31 468.256 249.678 468.36 249.038 468.568C248.398 468.76 247.854 469.032 247.406 469.384L245.87 466.288C246.606 465.808 247.486 465.44 248.51 465.184C249.55 464.912 250.582 464.776 251.606 464.776C253.718 464.776 255.35 465.264 256.502 466.24C257.67 467.2 258.254 468.712 258.254 470.776V478H254.006ZM250.166 478.216C249.126 478.216 248.246 478.04 247.526 477.688C246.806 477.336 246.254 476.856 245.87 476.248C245.502 475.64 245.318 474.96 245.318 474.208C245.318 473.408 245.518 472.72 245.918 472.144C246.334 471.552 246.966 471.104 247.814 470.8C248.662 470.48 249.758 470.32 251.102 470.32H254.174V472.696H251.726C250.99 472.696 250.47 472.816 250.166 473.056C249.878 473.296 249.734 473.616 249.734 474.016C249.734 474.416 249.886 474.736 250.19 474.976C250.494 475.216 250.91 475.336 251.438 475.336C251.934 475.336 252.382 475.216 252.782 474.976C253.198 474.72 253.502 474.336 253.694 473.824L254.318 475.504C254.078 476.4 253.606 477.08 252.902 477.544C252.214 477.992 251.302 478.216 250.166 478.216Z" fill="#170C10"/>
<path d="M70 402.118C69.9993 414.924 74.0057 412.644 87.0945 429.866C87.0945 353.026 149.031 332.868 180 331.682V318.875V309.626C180 309.626 157.702 299.665 145.811 302.511C133.919 305.357 131.69 318.875 122.027 327.413C112.364 335.951 98.9871 329.547 90.0675 340.219C81.1479 350.891 91.5547 365.833 87.0945 375.082C82.6344 384.331 70.0007 389.311 70 402.118Z" fill="#97CC52"/>
<path d="M290 402.629C290.001 415.436 285.994 412.644 272.905 429.866C272.905 353.026 210.969 333.379 180 332.193V319.387V310.138C180 310.138 202.298 300.177 214.189 303.023C226.081 305.869 228.31 319.387 237.973 327.925C247.636 336.462 261.013 330.059 269.933 340.731C278.852 351.403 268.445 366.344 272.905 375.593C277.366 384.843 289.999 389.823 290 402.629Z" fill="#60C344"/>
<path d="M100.815 376.198C90.4098 349.873 113.45 332.798 136.491 342.047C127.572 348.213 107.951 363.676 100.815 376.198Z" fill="#FF6838"/>
<path d="M260.27 377.621C270.676 351.296 247.636 334.221 224.595 343.47C233.514 349.636 253.135 365.099 260.27 377.621Z" fill="#AE4E32"/>
<path d="M181.487 319.587C168.109 320.298 161.443 325.778 156.217 336.662C165.73 333.247 177.027 332.963 181.487 333.247V319.587Z" fill="#FF6838"/>
<path d="M180 319.587C193.379 320.298 200.045 325.778 205.271 336.662C195.757 333.247 184.46 332.963 180 333.247V319.587Z" fill="#AE4E32"/>
<path d="M180 432H87.095C85.1407 371.127 123.514 334.528 180 331.682V432Z" fill="#FFECB3"/>
<path d="M180 432H272.909C274.863 371.127 236.488 334.528 180 331.682V432Z" fill="#FFD863"/>
<defs>
<linearGradient id="paint0_linear_374_19" x1="180" y1="3.08455e-07" x2="180" y2="800" gradientUnits="userSpaceOnUse">
<stop offset="0.037524" stop-color="#FFF478"/>
<stop offset="0.257294" stop-color="#FFEF3D"/>
<stop offset="0.5902" stop-color="#FCDA54"/>
<stop offset="0.95" stop-color="#FFC846"/>
</linearGradient>
</defs>
</svg>
