<svg width="20" height="20" viewBox="0 0 20 20" fill="none" xmlns="http://www.w3.org/2000/svg">
<path d="M12.6066 3.81981C10.1802 1.3934 6.24621 1.3934 3.81981 3.81981C1.3934 6.24621 1.3934 10.1802 3.81981 12.6066C6.24621 15.033 10.1802 15.033 12.6066 12.6066C15.033 10.1802 15.033 6.24621 12.6066 3.81981ZM2.40559 2.40559C5.61305 -0.801864 10.8134 -0.801864 14.0208 2.40559C16.9889 5.37369 17.2104 10.0483 14.6853 13.2711L18.8112 17.397C19.2017 17.7875 19.2017 18.4207 18.8112 18.8112C18.4207 19.2017 17.7875 19.2017 17.397 18.8112L13.2711 14.6853C10.0483 17.2104 5.37369 16.9889 2.40559 14.0208C-0.801864 10.8134 -0.801864 5.61305 2.40559 2.40559Z" fill="black"/>
</svg>
