<svg width="180" height="110" viewBox="0 0 180 110" fill="none" xmlns="http://www.w3.org/2000/svg">
<path d="M0 84.7151C-0.000562426 95.5513 3.27739 93.6216 13.9864 108.194C13.9864 43.1759 64.6619 26.1187 89.9997 25.1154V14.279V6.45278C89.9997 6.45278 71.7559 -1.97536 62.0268 0.432704C52.2977 2.84077 50.4734 14.279 42.5674 21.5033C34.6615 28.7277 23.7167 23.3094 16.4189 32.3396C9.121 41.3697 17.6357 54.0122 13.9864 61.8385C10.3372 69.6647 0.000562571 73.8789 0 84.7151Z" fill="#97CC52"/>
<path d="M180 85.148C180.001 95.9842 176.723 93.6217 166.014 108.194C166.014 43.1761 115.338 26.5516 90.0003 25.5483V14.7119V6.88564C90.0003 6.88564 108.244 -1.5425 117.973 0.865565C127.702 3.27363 129.527 14.7119 137.433 21.9362C145.339 29.1605 156.283 23.7423 163.581 32.7724C170.879 41.8026 162.364 54.4451 166.014 62.2713C169.663 70.0976 179.999 74.3118 180 85.148Z" fill="#60C344"/>
<path d="M25.2125 62.7827C16.6989 40.5082 35.55 26.0597 54.4016 33.8858C47.1044 39.1033 31.0505 52.1871 25.2125 62.7827Z" fill="#FF6838"/>
<path d="M155.676 63.9867C164.189 41.7122 145.338 27.2637 126.487 35.0898C133.784 40.3073 149.838 53.3911 155.676 63.9867Z" fill="#AE4E32"/>
<path d="M91.2165 14.8811C80.2706 15.4831 74.8166 20.1202 70.5409 29.3295C78.3247 26.4399 87.5679 26.199 91.2165 26.4399V14.8811Z" fill="#FF6838"/>
<path d="M90.0003 14.8811C100.946 15.4831 106.4 20.1202 110.676 29.3295C102.892 26.4399 93.6489 26.199 90.0003 26.4399V14.8811Z" fill="#AE4E32"/>
<path d="M90 110H13.9868C12.3879 58.4922 43.7843 27.5236 90 25.1155V110Z" fill="#FFECB3"/>
<path d="M90.0004 110H166.016C167.615 58.4922 136.218 27.5236 90.0004 25.1155V110Z" fill="#FFD863"/>
</svg>
